<svg width="52" height="53" fill="none" xmlns="http://www.w3.org/2000/svg"><rect x="5" y="3" width="40" height="40" rx="20" fill="url(#a)" style="mix-blend-mode:multiply"/><g filter="url(#b)"><path d="M13.828 21.484c0-6.704 5.434-12.138 12.138-12.138s12.137 5.434 12.137 12.138V27a6.62 6.62 0 0 1-6.62 6.62H14.89a1.103 1.103 0 0 1-1.062-1.062V21.484Z" fill="#fff"/><path d="M13.828 21.484c0-6.704 5.434-12.138 12.138-12.138s12.137 5.434 12.137 12.138V27a6.62 6.62 0 0 1-6.62 6.62H14.89a1.103 1.103 0 0 1-1.062-1.062V21.484Z" fill="url(#c)" fill-opacity=".2"/><g filter="url(#d)"><rect x="30.931" y="15.967" width="3.31" height="8.552" rx="1.541" fill="#5900FF"/></g><g filter="url(#e)"><rect x="25.69" y="15.967" width="3.31" height="8.552" rx="1.541" fill="#5900FF"/></g></g><defs><filter id="b" x=".034" y=".242" width="51.862" height="51.862" filterUnits="userSpaceOnUse" color-interpolation-filters="sRGB"><feFlood flood-opacity="0" result="BackgroundImageFix"/><feColorMatrix in="SourceAlpha" values="0 0 0 0 0 0 0 0 0 0 0 0 0 0 0 0 0 0 127 0" result="hardAlpha"/><feOffset dy="4.69"/><feGaussianBlur stdDeviation="6.897"/><feColorMatrix values="0 0 0 0 0 0 0 0 0 0 0 0 0 0 0 0 0 0 0.19 0"/><feBlend in2="BackgroundImageFix" result="effect1_dropShadow_1105_15449"/><feColorMatrix in="SourceAlpha" values="0 0 0 0 0 0 0 0 0 0 0 0 0 0 0 0 0 0 127 0" result="hardAlpha"/><feOffset dy="3.31"/><feGaussianBlur stdDeviation="2.069"/><feColorMatrix values="0 0 0 0 0 0 0 0 0 0 0 0 0 0 0 0 0 0 0.24 0"/><feBlend in2="effect1_dropShadow_1105_15449" result="effect2_dropShadow_1105_15449"/><feBlend in="SourceGraphic" in2="effect2_dropShadow_1105_15449" result="shape"/></filter><filter id="d" x="29.968" y="15.582" width="4.852" height="10.092" filterUnits="userSpaceOnUse" color-interpolation-filters="sRGB"><feFlood flood-opacity="0" result="BackgroundImageFix"/><feColorMatrix in="SourceAlpha" values="0 0 0 0 0 0 0 0 0 0 0 0 0 0 0 0 0 0 127 0" result="hardAlpha"/><feOffset dx="-.193" dy=".385"/><feGaussianBlur stdDeviation=".385"/><feComposite in2="hardAlpha" operator="out"/><feColorMatrix values="0 0 0 0 1 0 0 0 0 1 0 0 0 0 1 0 0 0 1 0"/><feBlend in2="BackgroundImageFix" result="effect1_dropShadow_1105_15449"/><feBlend in="SourceGraphic" in2="effect1_dropShadow_1105_15449" result="shape"/></filter><filter id="e" x="24.726" y="15.582" width="4.852" height="10.092" filterUnits="userSpaceOnUse" color-interpolation-filters="sRGB"><feFlood flood-opacity="0" result="BackgroundImageFix"/><feColorMatrix in="SourceAlpha" values="0 0 0 0 0 0 0 0 0 0 0 0 0 0 0 0 0 0 127 0" result="hardAlpha"/><feOffset dx="-.193" dy=".385"/><feGaussianBlur stdDeviation=".385"/><feComposite in2="hardAlpha" operator="out"/><feColorMatrix values="0 0 0 0 1 0 0 0 0 1 0 0 0 0 1 0 0 0 1 0"/><feBlend in2="BackgroundImageFix" result="effect1_dropShadow_1105_15449"/><feBlend in="SourceGraphic" in2="effect1_dropShadow_1105_15449" result="shape"/></filter><radialGradient id="c" cx="0" cy="0" r="1" gradientUnits="userSpaceOnUse" gradientTransform="matrix(-39.79225 46.74912 -45.22424 -38.49429 59.626 -13.127)"><stop stop-opacity=".25"/><stop offset=".547" stop-color="#F5F5F5"/><stop offset="1" stop-color="#5900FF"/></radialGradient><linearGradient id="a" x1="38.793" y1="3" x2="11.621" y2="35.138" gradientUnits="userSpaceOnUse"><stop stop-color="#F0F"/><stop offset="1" stop-color="#5900FF"/></linearGradient></defs></svg>